<svg xmlns="http://www.w3.org/2000/svg" width="160.506" height="37.286" viewBox="0 0 160.506 37.286">
  <g id="Group_86" data-name="Group 86" transform="translate(-317.525 -350.497)">
    <ellipse id="Ellipse_7" data-name="Ellipse 7" cx="6.723" cy="5.427" rx="6.723" ry="5.427" transform="translate(328.433 350.497)"/>
    <path id="Path_197" data-name="Path 197" d="M418.086,383.035h-6.354c-3.763-.751-7.582-2.9-11.537-6.442v-6c3.827-.788,6.658-3.552,6.658-6.851,0-3.912-3.976-7.084-8.881-7.084s-8.881,3.172-8.881,7.084c0,3.3,2.832,6.063,6.659,6.851v6.138a18.623,18.623,0,0,1-11.489,6.308h-6.4a2.222,2.222,0,0,0-.263,4.429,28.348,28.348,0,0,0,6.936.016H411.4a19.742,19.742,0,0,0,7.1-.038,2.223,2.223,0,0,0-.41-4.407Zm-22.62,0a25.233,25.233,0,0,0,2.662-2.332q1.512,1.281,3.028,2.332Z"/>
    <g id="Group_84" data-name="Group 84">
      <path id="Path_198" data-name="Path 198" d="M324.662,364.3a2.211,2.211,0,0,1-.494-.057l-4.912-1.115a2.222,2.222,0,1,1,.984-4.334l4.912,1.116a2.223,2.223,0,0,1-.49,4.39Z"/>
    </g>
    <ellipse id="Ellipse_8" data-name="Ellipse 8" cx="6.723" cy="5.427" rx="6.723" ry="5.427" transform="translate(453.677 350.497)"/>
    <g id="Group_85" data-name="Group 85">
      <path id="Path_199" data-name="Path 199" d="M470.893,364.3a2.225,2.225,0,0,1-2.165-1.731,2.276,2.276,0,0,1-.055-.495,2.22,2.22,0,0,1,1.73-2.164l4.913-1.116a2.222,2.222,0,1,1,.984,4.334l-4.912,1.115A2.213,2.213,0,0,1,470.893,364.3Z"/>
    </g>
  </g>
</svg>
